HIERARCHY
ROOT Hips
{
	OFFSET 0.000000 8.830580 0.000000
	CHANNELS 6 Xposition Yposition Zposition Zrotation Yrotation Xrotation 
	JOINT Spine
	{
		OFFSET 0.000000 0.010000 0.000000
		CHANNELS 3 Zrotation Yrotation Xrotation
		JOINT Spine1
		{
			OFFSET 0.000000 2.459130 0.000000
			CHANNELS 3 Zrotation Yrotation Xrotation
			JOINT Neck
			{
				OFFSET 0.000000 2.484630 0.000000
				CHANNELS 3 Zrotation Yrotation Xrotation
				JOINT Head_virtual
				{
					OFFSET 0.000000 0.000000 0.000000
					CHANNELS 3 Zrotation Yrotation Xrotation
					JOINT Head
					{
						OFFSET 0.000000 0.927525 0.000000
						CHANNELS 3 Zrotation Yrotation Xrotation
						End Site
						{
							OFFSET 0.000000 0.000000 0.000000
						}
					}
				}
				JOINT LeftUpArm_virtual
				{
					OFFSET 0.000000 0.000000 0.000000
					CHANNELS 3 Zrotation Yrotation Xrotation
					JOINT LeftUpArm
					{
						OFFSET 1.248820 0.000000 0.000000
						CHANNELS 3 Zrotation Yrotation Xrotation
						JOINT LeftForeArm
						{
							OFFSET 2.597580 0.000000 0.000000
							CHANNELS 3 Zrotation Yrotation Xrotation
							JOINT LeftHand
							{
								OFFSET 2.455420 0.000000 0.000000
								CHANNELS 3 Zrotation Yrotation Xrotation
								End Site
								{
									OFFSET 0.000000 0.000000 0.000000
								}
							}
						}
					}
				}
				JOINT RightUpArm_virtual
				{
					OFFSET -0.000000 -0.000000 -0.000000
					CHANNELS 3 Zrotation Yrotation Xrotation
					JOINT RightUpArm
					{
						OFFSET -1.248820 -0.000000 -0.000000
						CHANNELS 3 Zrotation Yrotation Xrotation
						JOINT RightForeArm
						{
							OFFSET -2.597580 -0.000000 -0.000000
							CHANNELS 3 Zrotation Yrotation Xrotation
							JOINT RightHand
							{
								OFFSET -2.455420 -0.000000 -0.000000
								CHANNELS 3 Zrotation Yrotation Xrotation
								End Site
								{
									OFFSET 0.000000 0.000000 0.000000
								}
							}
						}
					}
				}
			}
		}
	}
	JOINT LeftUpLeg
	{
		OFFSET 1.271939 0.000000 0.000000
		CHANNELS 3 Zrotation Yrotation Xrotation
		JOINT LeftLowLeg
		{
			OFFSET 0.000000 -4.342910 0.000000
			CHANNELS 3 Zrotation Yrotation Xrotation
			JOINT LeftFoot
			{
				OFFSET 0.000000 -4.487670 0.000000
				CHANNELS 3 Zrotation Yrotation Xrotation
				JOINT LeftToeBase
				{
					OFFSET 0.000000 0.000000 1.515070
					CHANNELS 3 Zrotation Yrotation Xrotation
					End Site
					{
						OFFSET 0.000000 0.000000 0.000000
					}
				}
			}
		}
	}
	JOINT RightUpLeg
	{
		OFFSET -1.271939 0.000000 0.000000
		CHANNELS 3 Zrotation Yrotation Xrotation
		JOINT RightLowLeg
		{
			OFFSET 0.000000 -4.342910 0.000000
			CHANNELS 3 Zrotation Yrotation Xrotation
			JOINT RightFoot
			{
				OFFSET 0.000000 -4.487670 0.000000
				CHANNELS 3 Zrotation Yrotation Xrotation
				JOINT RightToeBase
				{
					OFFSET 0.000000 0.000000 1.515070
					CHANNELS 3 Zrotation Yrotation Xrotation
					End Site
					{
						OFFSET 0.000000 0.000000 0.000000
					}
				}
			}
		}
	}
}
MOTION
Frames: 17
Frame Time: 0.041667
-18.774472 9.168449 42.010488 -174.781646 -2.403561 -171.162901 1.435245 -0.821436 -8.190327 6.055060 -0.407931 -6.997638 0.000000 0.000000 0.000000 -8.026194 -5.869179 36.412811 19.566576 9.495207 -79.306493 -22.944500 9.852760 -14.365900 11.675700 -12.287200 -25.291700 0.000000 -5.036720 0.000000 27.644899 6.275710 23.801500 18.785200 -3.623730 -5.746002 -6.991100 -1.462360 -65.207497 0.000000 14.337100 0.000000 -24.805799 -9.966630 41.854900 2.688302 0.674081 -8.024539 0.000000 0.000000 6.247280 -15.157580 7.250311 2.030946 0.000000 0.000000 -30.097000 7.586124 5.993293 -8.308261 0.000000 0.000000 7.575570 9.798481 -18.854743 6.811239 0.000000 0.000000 -31.703800 
-18.781333 9.168245 42.006880 -174.743254 -2.454222 -171.159755 1.462240 -0.912875 -8.290270 6.029873 -0.508357 -6.932844 0.000000 0.000000 0.000000 -7.966939 -6.023537 36.688855 19.488443 9.588168 -79.271936 -22.912500 9.909390 -14.362300 11.592400 -12.051800 -25.407600 0.000000 -5.232980 0.000000 27.343800 6.527030 23.934099 18.827801 -3.710500 -5.855988 -7.001120 -1.511630 -65.394302 0.000000 14.352300 0.000000 -24.619301 -10.230300 42.006302 2.694543 0.626662 -7.945948 0.000000 0.000000 6.114680 -15.170620 7.246749 2.036373 0.000000 0.000000 -30.037300 7.617045 5.757331 -8.281194 0.000000 0.000000 7.559630 9.761284 -18.739598 6.841041 0.000000 0.000000 -31.627199 
-18.788907 9.168022 42.002134 -174.721874 -2.468620 -171.133648 1.450409 -0.965587 -8.414534 6.047646 -0.560990 -6.891922 0.000000 0.000000 0.000000 -7.919654 -6.205618 36.978650 19.441977 9.651348 -79.241872 -22.976299 9.924880 -14.388800 11.603500 -12.004500 -25.345800 0.000000 -5.117890 0.000000 27.264000 6.546440 23.936701 18.841200 -3.829160 -6.096008 -7.020130 -1.562950 -65.214699 0.000000 14.282300 0.000000 -24.677500 -10.230400 41.954700 2.670308 0.627512 -7.881096 0.000000 0.000000 5.993530 -15.130777 7.266284 2.052592 0.000000 0.000000 -29.971200 7.603336 5.727069 -8.230645 0.000000 0.000000 7.466040 9.759598 -18.763309 6.858833 0.000000 0.000000 -31.609600 
-18.796252 9.167850 41.995723 -174.703359 -2.524579 -171.113547 1.439352 -1.039343 -8.567930 6.048104 -0.637092 -6.810363 0.000000 0.000000 0.000000 -7.855985 -6.381360 37.252798 19.335522 9.759052 -79.231241 -23.011299 9.985790 -14.391000 11.570700 -11.958700 -25.312700 0.000000 -5.107290 0.000000 27.156500 6.575770 23.870600 18.860201 -3.968450 -6.229004 -6.996760 -1.578570 -65.369202 0.000000 14.289500 0.000000 -24.765499 -10.222500 42.109798 2.641350 0.698812 -7.814255 0.000000 0.000000 5.882810 -15.096580 7.174946 2.096122 0.000000 0.000000 -29.994600 7.573414 5.854026 -8.146440 0.000000 0.000000 7.343500 9.829439 -18.936948 6.823000 0.000000 0.000000 -31.522200 
-18.802143 9.167933 41.987711 -174.685842 -2.615415 -171.092097 1.412500 -1.117496 -8.785665 6.052798 -0.718755 -6.657996 0.000000 0.000000 0.000000 -7.809613 -6.499453 37.507167 19.310565 9.842689 -79.207347 -22.993200 10.032100 -14.366800 11.457600 -11.922500 -25.283501 0.000000 -5.138610 0.000000 27.085100 6.665610 23.813900 18.875700 -4.018190 -6.368988 -6.963580 -1.769460 -65.255203 0.000000 14.334200 0.000000 -24.890400 -10.408000 41.874298 2.630113 0.700775 -7.746673 0.000000 0.000000 5.783140 -15.084328 7.101635 2.118056 0.000000 0.000000 -29.916100 7.589041 5.686394 -8.094035 0.000000 0.000000 7.299960 9.788055 -18.922526 6.825784 0.000000 0.000000 -31.398399 
-18.808754 9.167823 41.980268 -174.651634 -2.722371 -171.101171 1.414522 -1.198900 -8.922069 6.056067 -0.803297 -6.605352 0.000000 0.000000 0.000000 -7.777622 -6.587125 37.767772 19.325408 9.907418 -79.178636 -23.034700 10.073000 -14.276300 11.427200 -11.915000 -25.409700 0.000000 -5.110410 0.000000 27.039101 6.684500 23.854300 18.922501 -4.110900 -6.403992 -7.009160 -1.881600 -65.240501 0.000000 14.291900 0.000000 -24.990601 -10.390800 42.151600 2.666650 0.252467 -7.632155 0.000000 0.000000 5.640590 -15.097467 7.461356 2.032416 0.000000 0.000000 -29.811600 7.596265 5.880281 -7.976563 0.000000 0.000000 7.176680 9.771704 -19.279232 6.796375 0.000000 0.000000 -31.229900 
-18.814821 9.167253 41.970210 -174.644754 -2.793243 -171.143611 1.369211 -1.269701 -9.102864 6.076411 -0.872890 -6.459293 0.000000 0.000000 0.000000 -7.747619 -6.694683 37.996991 19.297921 9.958570 -79.150949 -23.059799 10.084400 -14.322000 11.356600 -11.923700 -25.557400 0.000000 -5.095360 0.000000 26.975300 6.755850 24.035299 18.915501 -4.224650 -6.532990 -7.007750 -1.941030 -65.133499 0.000000 14.273900 0.000000 -25.021400 -10.605100 42.321800 2.629859 0.292510 -7.525248 0.000000 0.000000 5.612410 -15.113390 7.387840 2.012716 0.000000 0.000000 -29.791800 7.595408 5.834134 -7.835317 0.000000 0.000000 7.106600 9.796450 -19.346620 6.749232 0.000000 0.000000 -31.132299 
-18.819677 9.166754 41.962533 -174.635146 -2.868960 -171.194582 1.323169 -1.336429 -9.192722 6.087650 -0.930323 -6.425651 0.000000 0.000000 0.000000 -7.729489 -6.754250 38.243695 19.256690 10.020095 -79.133381 -23.081900 10.128900 -14.389300 11.295200 -12.003300 -25.551600 0.000000 -5.071910 0.000000 26.908501 6.881820 24.377800 18.959200 -4.353760 -6.539001 -7.071350 -1.953590 -65.298599 0.000000 14.205000 0.000000 -25.121500 -10.795700 42.555698 2.622330 0.145308 -7.441844 0.000000 0.000000 5.618250 -15.097676 7.481350 1.948695 0.000000 0.000000 -29.698200 7.597179 5.887385 -7.699868 0.000000 0.000000 7.037540 9.803342 -19.511831 6.695400 0.000000 0.000000 -30.988900 
-18.825440 9.166393 41.953726 -174.622479 -2.959135 -171.238547 1.312909 -1.401217 -9.346010 6.056404 -0.996397 -6.351515 0.000000 0.000000 0.000000 -7.707703 -6.918785 38.524125 19.164266 10.073560 -79.149406 -23.125999 10.132600 -14.418200 11.285500 -12.069200 -25.634501 0.000000 -5.031030 0.000000 26.869301 6.944390 24.442101 18.973101 -4.466180 -6.738007 -7.090230 -1.970860 -65.191902 0.000000 14.151500 0.000000 -25.475800 -10.870700 43.629398 2.589860 0.319954 -7.416746 0.000000 0.000000 5.727900 -15.065886 7.235785 1.942173 0.000000 0.000000 -29.753200 7.603760 5.834409 -7.609239 0.000000 0.000000 7.054970 9.829862 -19.584727 6.633878 0.000000 0.000000 -30.958400 
-18.831153 9.165694 41.946106 -174.613327 -2.969707 -171.295201 1.282239 -1.447259 -9.435588 6.065704 -1.034997 -6.342959 0.000000 0.000000 0.000000 -7.711967 -7.018671 38.781840 19.028644 10.107648 -79.169109 -23.202801 10.169400 -14.371700 11.325200 -12.097600 -25.728001 0.000000 -5.023380 0.000000 26.740400 6.970000 24.416901 18.995800 -4.500750 -6.885986 -7.151910 -2.008010 -65.286697 0.000000 14.154000 0.000000 -25.565399 -11.072600 43.997898 2.565644 0.331116 -7.327203 0.000000 0.000000 5.754690 -15.080690 7.202258 1.885785 0.000000 0.000000 -29.676700 7.606985 5.709900 -7.493863 0.000000 0.000000 7.033820 9.826169 -19.527977 6.605210 0.000000 0.000000 -30.943200 
-18.836519 9.165386 41.938280 -174.579258 -2.998333 -171.313026 1.297752 -1.491516 -9.584338 6.030482 -1.083877 -6.313974 0.000000 0.000000 0.000000 -7.742352 -7.016657 39.024469 18.975833 10.132300 -79.216049 -23.223400 10.218800 -14.406500 11.289100 -12.093700 -25.628799 0.000000 -5.163600 0.000000 26.583300 7.103150 24.361099 19.046400 -4.631590 -7.018005 -7.194810 -1.925730 -65.235397 0.000000 14.180800 0.000000 -25.532600 -11.209900 43.862598 2.597350 0.007789 -7.242950 0.000000 0.000000 5.715420 -15.096314 7.474789 1.775795 0.000000 0.000000 -29.588100 7.601800 5.921298 -7.442914 0.000000 0.000000 7.059130 9.927898 -19.742923 6.519371 0.000000 0.000000 -30.895900 
-18.840709 9.164664 41.929745 -174.555083 -2.958782 -171.320170 1.257910 -1.519473 -9.751882 6.088287 -1.105179 -6.266310 0.000000 0.000000 0.000000 -7.794006 -7.042212 39.228524 18.850780 10.128146 -79.310922 -23.263100 10.237000 -14.345700 11.259900 -12.039600 -25.760099 0.000000 -5.222490 0.000000 26.578899 7.002000 24.439899 19.099001 -4.605990 -6.951996 -7.340510 -2.031880 -65.195999 0.000000 14.174400 0.000000 -25.436600 -11.247300 43.964199 2.552145 0.514014 -7.224272 0.000000 0.000000 5.798490 -15.051713 7.042425 1.805929 0.000000 0.000000 -29.666000 7.614450 5.816688 -7.448185 0.000000 0.000000 7.171590 10.107842 -19.626571 6.465084 0.000000 0.000000 -31.089800 
-18.844912 9.164171 41.921963 -174.545770 -2.862819 -171.313371 1.209337 -1.522337 -9.908993 6.113583 -1.096938 -6.247720 0.000000 0.000000 0.000000 -7.849412 -6.976986 39.416300 18.827110 10.136142 -79.402298 -23.293501 10.253000 -14.386900 11.239900 -11.994700 -25.609900 0.000000 -5.303810 0.000000 26.572599 7.027770 24.388399 19.140600 -4.630640 -6.962006 -7.404620 -2.049330 -65.218597 0.000000 14.232300 0.000000 -25.324699 -11.299900 43.857498 2.547519 0.302143 -7.095719 0.000000 0.000000 5.674910 -15.103359 7.318772 1.713464 0.000000 0.000000 -29.602600 7.610330 5.771771 -7.471754 0.000000 0.000000 7.298050 9.962415 -19.554667 6.419271 0.000000 0.000000 -30.923900 
-18.848592 9.163347 41.914319 -174.515413 -2.786692 -171.295269 1.169517 -1.546496 -10.096516 6.178444 -1.114318 -6.198877 0.000000 0.000000 0.000000 -7.916314 -6.882929 39.571554 18.768830 10.117856 -79.466031 -23.438400 10.272800 -14.349500 11.393400 -12.024200 -25.604000 0.000000 -5.190810 0.000000 26.669800 6.972600 24.261200 19.168800 -4.619790 -6.937988 -7.490480 -2.049440 -65.143204 0.000000 14.230100 0.000000 -25.363800 -11.318800 43.653400 2.553301 0.274470 -7.018111 0.000000 0.000000 5.620630 -15.111718 7.401618 1.624137 0.000000 0.000000 -29.478000 7.619178 5.779897 -7.491000 0.000000 0.000000 7.384990 10.158174 -19.503197 6.366218 0.000000 0.000000 -31.152901 
-18.852179 9.162722 41.906800 -174.507617 -2.705313 -171.295175 1.136300 -1.554286 -10.247911 6.182225 -1.114399 -6.179193 0.000000 0.000000 0.000000 -7.963908 -6.812484 39.736680 18.690421 10.143550 -79.560756 -23.489799 10.315800 -14.413400 11.419100 -12.044600 -25.533899 0.000000 -5.221300 0.000000 26.646700 7.025880 24.200199 19.222099 -4.639870 -6.933014 -7.551970 -2.028590 -65.177101 0.000000 14.244000 0.000000 -25.325399 -11.312800 43.569199 2.532373 0.305540 -6.922699 0.000000 0.000000 5.559640 -15.119556 7.440675 1.579100 0.000000 0.000000 -29.433700 7.608535 5.777984 -7.479606 0.000000 0.000000 7.451630 10.198142 -19.444641 6.315951 0.000000 0.000000 -31.102200 
-18.854450 9.162331 41.900978 -174.504190 -2.667642 -171.321038 1.103993 -1.583440 -10.354397 6.155506 -1.134007 -6.178115 0.000000 0.000000 0.000000 -7.998071 -6.729079 39.875486 18.714420 10.162321 -79.609599 -23.545200 10.323400 -14.311300 11.524600 -11.988800 -25.597799 0.000000 -5.275530 0.000000 26.608400 7.023080 24.358200 19.315599 -4.686410 -6.953003 -7.618880 -1.950160 -65.078201 0.000000 14.212600 0.000000 -25.410400 -11.376800 43.337700 2.519953 0.307621 -6.856029 0.000000 0.000000 5.568490 -15.111685 7.464057 1.533194 0.000000 0.000000 -29.390300 7.607843 5.783991 -7.451882 0.000000 0.000000 7.513230 10.244479 -19.449265 6.268653 0.000000 0.000000 -31.120001 
-18.856572 9.161615 41.895023 -174.466778 -2.617384 -171.372518 1.064694 -1.609099 -10.409350 6.209193 -1.148356 -6.190628 0.000000 0.000000 0.000000 -8.031796 -6.738674 40.012252 18.567676 10.206854 -79.749836 -23.541000 10.405200 -14.304300 11.457100 -11.940400 -25.685301 0.000000 -5.436050 0.000000 26.544901 7.092880 24.348200 19.307600 -4.694910 -7.014008 -7.600730 -1.885070 -65.328300 0.000000 14.207500 0.000000 -25.475500 -11.366700 43.726898 2.525065 0.436863 -6.778378 0.000000 0.000000 5.606350 -15.121440 7.399754 1.462987 0.000000 0.000000 -29.376000 7.634873 5.984174 -7.350916 0.000000 0.000000 7.490250 10.018460 -19.650355 6.233436 0.000000 0.000000 -30.736000 
